%TF.GenerationSoftware,KiCad,Pcbnew,10.0.3*%
%TF.CreationDate,2026-07-09T16:22:56-04:00*%
%TF.ProjectId,hanging-garden-pcb,68616e67-696e-4672-9d67-617264656e2d,rev?*%
%TF.SameCoordinates,Original*%
%TF.FileFunction,Paste,Top*%
%TF.FilePolarity,Positive*%
%FSLAX46Y46*%
G04 Gerber Fmt 4.6, Leading zero omitted, Abs format (unit mm)*
G04 Created by KiCad (PCBNEW 10.0.3) date 2026-07-09 16:22:56*
%MOMM*%
%LPD*%
G01*
G04 APERTURE LIST*
G04 Aperture macros list*
%AMRoundRect*
0 Rectangle with rounded corners*
0 $1 Rounding radius*
0 $2 $3 $4 $5 $6 $7 $8 $9 X,Y pos of 4 corners*
0 Add a 4 corners polygon primitive as box body*
4,1,4,$2,$3,$4,$5,$6,$7,$8,$9,$2,$3,0*
0 Add four circle primitives for the rounded corners*
1,1,$1+$1,$2,$3*
1,1,$1+$1,$4,$5*
1,1,$1+$1,$6,$7*
1,1,$1+$1,$8,$9*
0 Add four rect primitives between the rounded corners*
20,1,$1+$1,$2,$3,$4,$5,0*
20,1,$1+$1,$4,$5,$6,$7,0*
20,1,$1+$1,$6,$7,$8,$9,0*
20,1,$1+$1,$8,$9,$2,$3,0*%
G04 Aperture macros list end*
%ADD10RoundRect,0.135000X-0.135000X-0.185000X0.135000X-0.185000X0.135000X0.185000X-0.135000X0.185000X0*%
%ADD11RoundRect,0.135000X0.185000X-0.135000X0.185000X0.135000X-0.185000X0.135000X-0.185000X-0.135000X0*%
%ADD12RoundRect,0.140000X0.140000X0.170000X-0.140000X0.170000X-0.140000X-0.170000X0.140000X-0.170000X0*%
%ADD13R,1.250000X0.900000*%
%ADD14O,0.800000X2.500000*%
%ADD15RoundRect,0.135000X0.135000X0.185000X-0.135000X0.185000X-0.135000X-0.185000X0.135000X-0.185000X0*%
%ADD16RoundRect,0.140000X0.170000X-0.140000X0.170000X0.140000X-0.170000X0.140000X-0.170000X-0.140000X0*%
%ADD17RoundRect,0.150000X0.150000X-0.512500X0.150000X0.512500X-0.150000X0.512500X-0.150000X-0.512500X0*%
%ADD18O,1.500000X3.500000*%
%ADD19RoundRect,0.225000X-0.250000X0.225000X-0.250000X-0.225000X0.250000X-0.225000X0.250000X0.225000X0*%
%ADD20RoundRect,0.150000X-0.150000X0.587500X-0.150000X-0.587500X0.150000X-0.587500X0.150000X0.587500X0*%
%ADD21RoundRect,0.250000X0.625000X-0.312500X0.625000X0.312500X-0.625000X0.312500X-0.625000X-0.312500X0*%
%ADD22RoundRect,0.135000X-0.185000X0.135000X-0.185000X-0.135000X0.185000X-0.135000X0.185000X0.135000X0*%
%ADD23RoundRect,0.140000X-0.140000X-0.170000X0.140000X-0.170000X0.140000X0.170000X-0.140000X0.170000X0*%
G04 APERTURE END LIST*
D10*
%TO.C,R13*%
X166890000Y-99900000D03*
X167910000Y-99900000D03*
%TD*%
%TO.C,R2*%
X163427500Y-110200000D03*
X164447500Y-110200000D03*
%TD*%
D11*
%TO.C,R5*%
X161300000Y-109310000D03*
X161300000Y-108290000D03*
%TD*%
D12*
%TO.C,C6*%
X169280000Y-108300000D03*
X168320000Y-108300000D03*
%TD*%
D13*
%TO.C,SW1*%
X166875000Y-107950000D03*
X162725000Y-107950000D03*
X166875000Y-104450000D03*
X162725000Y-104450000D03*
%TD*%
D14*
%TO.C,J6*%
X162700000Y-97600000D03*
X161500000Y-97600000D03*
X160300000Y-97600000D03*
%TD*%
D15*
%TO.C,R14*%
X167910000Y-100900000D03*
X166890000Y-100900000D03*
%TD*%
D10*
%TO.C,R9*%
X161390000Y-99800000D03*
X162410000Y-99800000D03*
%TD*%
D16*
%TO.C,C1*%
X168937500Y-111680000D03*
X168937500Y-110720000D03*
%TD*%
D15*
%TO.C,R7*%
X165410000Y-109200000D03*
X164390000Y-109200000D03*
%TD*%
%TO.C,R8*%
X161710000Y-113300000D03*
X160690000Y-113300000D03*
%TD*%
D14*
%TO.C,J8*%
X167100000Y-97600000D03*
X165900000Y-97600000D03*
X164700000Y-97600000D03*
%TD*%
D11*
%TO.C,R3*%
X168937500Y-114110000D03*
X168937500Y-113090000D03*
%TD*%
D15*
%TO.C,R6*%
X163410000Y-109200000D03*
X162390000Y-109200000D03*
%TD*%
%TO.C,R10*%
X161810000Y-100900000D03*
X160790000Y-100900000D03*
%TD*%
D17*
%TO.C,U2*%
X163650000Y-102537500D03*
X165550000Y-102537500D03*
X164600000Y-100262500D03*
%TD*%
D18*
%TO.C,J1*%
X162300000Y-120400000D03*
X164800000Y-120400000D03*
X167300000Y-120400000D03*
%TD*%
D19*
%TO.C,C5*%
X161000000Y-102425000D03*
X161000000Y-103975000D03*
%TD*%
D15*
%TO.C,R17*%
X162310000Y-110200000D03*
X161290000Y-110200000D03*
%TD*%
D20*
%TO.C,Q2*%
X164950000Y-112000000D03*
X163050000Y-112000000D03*
X164000000Y-113875000D03*
%TD*%
D21*
%TO.C,R1*%
X167000000Y-113462500D03*
X167000000Y-110537500D03*
%TD*%
D19*
%TO.C,C7*%
X168500000Y-102625000D03*
X168500000Y-104175000D03*
%TD*%
D22*
%TO.C,R4*%
X168300000Y-106190000D03*
X168300000Y-107210000D03*
%TD*%
D23*
%TO.C,C4*%
X166420000Y-109200000D03*
X167380000Y-109200000D03*
%TD*%
M02*
