%TF.GenerationSoftware,KiCad,Pcbnew,10.0.3*%
%TF.CreationDate,2026-07-09T16:22:56-04:00*%
%TF.ProjectId,hanging-garden-pcb,68616e67-696e-4672-9d67-617264656e2d,rev?*%
%TF.SameCoordinates,Original*%
%TF.FileFunction,Paste,Bot*%
%TF.FilePolarity,Positive*%
%FSLAX46Y46*%
G04 Gerber Fmt 4.6, Leading zero omitted, Abs format (unit mm)*
G04 Created by KiCad (PCBNEW 10.0.3) date 2026-07-09 16:22:56*
%MOMM*%
%LPD*%
G01*
G04 APERTURE LIST*
G04 Aperture macros list*
%AMRoundRect*
0 Rectangle with rounded corners*
0 $1 Rounding radius*
0 $2 $3 $4 $5 $6 $7 $8 $9 X,Y pos of 4 corners*
0 Add a 4 corners polygon primitive as box body*
4,1,4,$2,$3,$4,$5,$6,$7,$8,$9,$2,$3,0*
0 Add four circle primitives for the rounded corners*
1,1,$1+$1,$2,$3*
1,1,$1+$1,$4,$5*
1,1,$1+$1,$6,$7*
1,1,$1+$1,$8,$9*
0 Add four rect primitives between the rounded corners*
20,1,$1+$1,$2,$3,$4,$5,0*
20,1,$1+$1,$4,$5,$6,$7,0*
20,1,$1+$1,$6,$7,$8,$9,0*
20,1,$1+$1,$8,$9,$2,$3,0*%
G04 Aperture macros list end*
%ADD10RoundRect,0.135000X-0.185000X0.135000X-0.185000X-0.135000X0.185000X-0.135000X0.185000X0.135000X0*%
%ADD11RoundRect,0.140000X-0.170000X0.140000X-0.170000X-0.140000X0.170000X-0.140000X0.170000X0.140000X0*%
%ADD12RoundRect,0.250000X-0.450000X-0.350000X0.450000X-0.350000X0.450000X0.350000X-0.450000X0.350000X0*%
%ADD13RoundRect,0.135000X0.135000X0.185000X-0.135000X0.185000X-0.135000X-0.185000X0.135000X-0.185000X0*%
%ADD14RoundRect,0.250000X0.285000X-0.285000X0.285000X0.285000X-0.285000X0.285000X-0.285000X-0.285000X0*%
%ADD15RoundRect,0.062500X0.062500X-0.337500X0.062500X0.337500X-0.062500X0.337500X-0.062500X-0.337500X0*%
%ADD16RoundRect,0.062500X0.337500X-0.062500X0.337500X0.062500X-0.337500X0.062500X-0.337500X-0.062500X0*%
%ADD17RoundRect,0.140000X0.140000X0.170000X-0.140000X0.170000X-0.140000X-0.170000X0.140000X-0.170000X0*%
%ADD18O,1.500000X3.500000*%
%ADD19O,0.800000X2.500000*%
G04 APERTURE END LIST*
D10*
%TO.C,R15*%
X168100000Y-97590000D03*
X168100000Y-98610000D03*
%TD*%
D11*
%TO.C,C2*%
X167600000Y-113320000D03*
X167600000Y-114280000D03*
%TD*%
D12*
%TO.C,Y1*%
X163700000Y-112550000D03*
X165900000Y-112550000D03*
X165900000Y-114250000D03*
X163700000Y-114250000D03*
%TD*%
D13*
%TO.C,R12*%
X162610000Y-99300000D03*
X161590000Y-99300000D03*
%TD*%
D10*
%TO.C,R16*%
X169200000Y-97590000D03*
X169200000Y-98610000D03*
%TD*%
D14*
%TO.C,U1*%
X162820000Y-108780000D03*
X164140000Y-108780000D03*
X165460000Y-108780000D03*
X166780000Y-108780000D03*
X162820000Y-107460000D03*
X164140000Y-107460000D03*
X165460000Y-107460000D03*
X166780000Y-107460000D03*
X162820000Y-106140000D03*
X164140000Y-106140000D03*
X165460000Y-106140000D03*
X166780000Y-106140000D03*
X162820000Y-104820000D03*
X164140000Y-104820000D03*
X165460000Y-104820000D03*
X166780000Y-104820000D03*
D15*
X167550000Y-110250000D03*
X167050000Y-110250000D03*
X166550000Y-110250000D03*
X166050000Y-110250000D03*
X165550000Y-110250000D03*
X165050000Y-110250000D03*
X164550000Y-110250000D03*
X164050000Y-110250000D03*
X163550000Y-110250000D03*
X163050000Y-110250000D03*
X162550000Y-110250000D03*
X162050000Y-110250000D03*
D16*
X161350000Y-109550000D03*
X161350000Y-109050000D03*
X161350000Y-108550000D03*
X161350000Y-108050000D03*
X161350000Y-107550000D03*
X161350000Y-107050000D03*
X161350000Y-106550000D03*
X161350000Y-106050000D03*
X161350000Y-105550000D03*
X161350000Y-105050000D03*
X161350000Y-104550000D03*
X161350000Y-104050000D03*
D15*
X162050000Y-103350000D03*
X162550000Y-103350000D03*
X163050000Y-103350000D03*
X163550000Y-103350000D03*
X164050000Y-103350000D03*
X164550000Y-103350000D03*
X165050000Y-103350000D03*
X165550000Y-103350000D03*
X166050000Y-103350000D03*
X166550000Y-103350000D03*
X167050000Y-103350000D03*
X167550000Y-103350000D03*
D16*
X168250000Y-104050000D03*
X168250000Y-104550000D03*
X168250000Y-105050000D03*
X168250000Y-105550000D03*
X168250000Y-106050000D03*
X168250000Y-106550000D03*
X168250000Y-107050000D03*
X168250000Y-107550000D03*
X168250000Y-108050000D03*
X168250000Y-108550000D03*
X168250000Y-109050000D03*
X168250000Y-109550000D03*
%TD*%
D10*
%TO.C,R11*%
X163700000Y-97590000D03*
X163700000Y-98610000D03*
%TD*%
D17*
%TO.C,C3*%
X162180000Y-113100000D03*
X161220000Y-113100000D03*
%TD*%
D18*
%TO.C,J2*%
X167300000Y-120400000D03*
X164800000Y-120400000D03*
X162300000Y-120400000D03*
%TD*%
D19*
%TO.C,J9*%
X166900000Y-95600000D03*
X168100000Y-95600000D03*
X169300000Y-95600000D03*
%TD*%
%TO.C,J7*%
X162500000Y-95600000D03*
X163700000Y-95600000D03*
X164900000Y-95600000D03*
%TD*%
M02*
