%TF.GenerationSoftware,KiCad,Pcbnew,10.0.3*%
%TF.CreationDate,2026-07-09T16:22:56-04:00*%
%TF.ProjectId,hanging-garden-pcb,68616e67-696e-4672-9d67-617264656e2d,rev?*%
%TF.SameCoordinates,Original*%
%TF.FileFunction,Copper,L1,Top*%
%TF.FilePolarity,Positive*%
%FSLAX46Y46*%
G04 Gerber Fmt 4.6, Leading zero omitted, Abs format (unit mm)*
G04 Created by KiCad (PCBNEW 10.0.3) date 2026-07-09 16:22:56*
%MOMM*%
%LPD*%
G01*
G04 APERTURE LIST*
G04 Aperture macros list*
%AMRoundRect*
0 Rectangle with rounded corners*
0 $1 Rounding radius*
0 $2 $3 $4 $5 $6 $7 $8 $9 X,Y pos of 4 corners*
0 Add a 4 corners polygon primitive as box body*
4,1,4,$2,$3,$4,$5,$6,$7,$8,$9,$2,$3,0*
0 Add four circle primitives for the rounded corners*
1,1,$1+$1,$2,$3*
1,1,$1+$1,$4,$5*
1,1,$1+$1,$6,$7*
1,1,$1+$1,$8,$9*
0 Add four rect primitives between the rounded corners*
20,1,$1+$1,$2,$3,$4,$5,0*
20,1,$1+$1,$4,$5,$6,$7,0*
20,1,$1+$1,$6,$7,$8,$9,0*
20,1,$1+$1,$8,$9,$2,$3,0*%
G04 Aperture macros list end*
%TA.AperFunction,SMDPad,CuDef*%
%ADD10RoundRect,0.135000X-0.135000X-0.185000X0.135000X-0.185000X0.135000X0.185000X-0.135000X0.185000X0*%
%TD*%
%TA.AperFunction,SMDPad,CuDef*%
%ADD11RoundRect,0.135000X0.185000X-0.135000X0.185000X0.135000X-0.185000X0.135000X-0.185000X-0.135000X0*%
%TD*%
%TA.AperFunction,SMDPad,CuDef*%
%ADD12RoundRect,0.140000X0.140000X0.170000X-0.140000X0.170000X-0.140000X-0.170000X0.140000X-0.170000X0*%
%TD*%
%TA.AperFunction,SMDPad,CuDef*%
%ADD13R,1.250000X0.900000*%
%TD*%
%TA.AperFunction,SMDPad,CuDef*%
%ADD14O,0.800000X2.500000*%
%TD*%
%TA.AperFunction,SMDPad,CuDef*%
%ADD15RoundRect,0.135000X0.135000X0.185000X-0.135000X0.185000X-0.135000X-0.185000X0.135000X-0.185000X0*%
%TD*%
%TA.AperFunction,SMDPad,CuDef*%
%ADD16RoundRect,0.140000X0.170000X-0.140000X0.170000X0.140000X-0.170000X0.140000X-0.170000X-0.140000X0*%
%TD*%
%TA.AperFunction,ComponentPad*%
%ADD17O,4.000000X2.000000*%
%TD*%
%TA.AperFunction,ComponentPad*%
%ADD18C,1.400000*%
%TD*%
%TA.AperFunction,SMDPad,CuDef*%
%ADD19RoundRect,0.150000X0.150000X-0.512500X0.150000X0.512500X-0.150000X0.512500X-0.150000X-0.512500X0*%
%TD*%
%TA.AperFunction,SMDPad,CuDef*%
%ADD20O,1.500000X3.500000*%
%TD*%
%TA.AperFunction,SMDPad,CuDef*%
%ADD21RoundRect,0.225000X-0.250000X0.225000X-0.250000X-0.225000X0.250000X-0.225000X0.250000X0.225000X0*%
%TD*%
%TA.AperFunction,SMDPad,CuDef*%
%ADD22RoundRect,0.150000X-0.150000X0.587500X-0.150000X-0.587500X0.150000X-0.587500X0.150000X0.587500X0*%
%TD*%
%TA.AperFunction,SMDPad,CuDef*%
%ADD23RoundRect,0.250000X0.625000X-0.312500X0.625000X0.312500X-0.625000X0.312500X-0.625000X-0.312500X0*%
%TD*%
%TA.AperFunction,SMDPad,CuDef*%
%ADD24RoundRect,0.135000X-0.185000X0.135000X-0.185000X-0.135000X0.185000X-0.135000X0.185000X0.135000X0*%
%TD*%
%TA.AperFunction,SMDPad,CuDef*%
%ADD25RoundRect,0.140000X-0.140000X-0.170000X0.140000X-0.170000X0.140000X0.170000X-0.140000X0.170000X0*%
%TD*%
%TA.AperFunction,ViaPad*%
%ADD26C,0.600000*%
%TD*%
%TA.AperFunction,Conductor*%
%ADD27C,0.200000*%
%TD*%
%TA.AperFunction,Conductor*%
%ADD28C,0.500000*%
%TD*%
%TA.AperFunction,Conductor*%
%ADD29C,1.000000*%
%TD*%
G04 APERTURE END LIST*
D10*
%TO.P,R13,1*%
%TO.N,Net-(J8-Pin_2)*%
X166890000Y-99900000D03*
%TO.P,R13,2*%
%TO.N,/USART3_TX*%
X167910000Y-99900000D03*
%TD*%
%TO.P,R2,1*%
%TO.N,+5V*%
X163427500Y-110200000D03*
%TO.P,R2,2*%
%TO.N,/LED_PWR_EN*%
X164447500Y-110200000D03*
%TD*%
D11*
%TO.P,R5,1*%
%TO.N,+5V*%
X161300000Y-109310000D03*
%TO.P,R5,2*%
%TO.N,/SPI_MOSI*%
X161300000Y-108290000D03*
%TD*%
D12*
%TO.P,C6,1*%
%TO.N,VDD*%
X169280000Y-108300000D03*
%TO.P,C6,2*%
%TO.N,GND*%
X168320000Y-108300000D03*
%TD*%
D13*
%TO.P,SW1,1,1_1*%
%TO.N,Net-(U1-BOOT0)*%
X166875000Y-107950000D03*
%TO.P,SW1,2,2_2*%
X162725000Y-107950000D03*
%TO.P,SW1,3,K_3*%
%TO.N,VDD*%
X166875000Y-104450000D03*
%TO.P,SW1,4,A_4*%
X162725000Y-104450000D03*
%TD*%
D14*
%TO.P,J6,1,Pin_1_1*%
%TO.N,+5V*%
X162700000Y-97600000D03*
%TO.P,J6,2,Pin_2_2*%
%TO.N,Net-(J6-Pin_2)*%
X161500000Y-97600000D03*
%TO.P,J6,3,Pin_3_3*%
%TO.N,GND*%
X160300000Y-97600000D03*
%TD*%
D15*
%TO.P,R14,1*%
%TO.N,/USART3_TX*%
X167910000Y-100900000D03*
%TO.P,R14,2*%
%TO.N,VDD*%
X166890000Y-100900000D03*
%TD*%
D10*
%TO.P,R9,1*%
%TO.N,Net-(J6-Pin_2)*%
X161390000Y-99800000D03*
%TO.P,R9,2*%
%TO.N,/USART2_TX*%
X162410000Y-99800000D03*
%TD*%
D16*
%TO.P,C1,1*%
%TO.N,/I_SENSE*%
X168937500Y-111680000D03*
%TO.P,C1,2*%
%TO.N,GND*%
X168937500Y-110720000D03*
%TD*%
D15*
%TO.P,R7,1*%
%TO.N,GND*%
X165410000Y-109200000D03*
%TO.P,R7,2*%
%TO.N,/V_SENSE*%
X164390000Y-109200000D03*
%TD*%
%TO.P,R8,1*%
%TO.N,/TOUCH*%
X161710000Y-113300000D03*
%TO.P,R8,2*%
%TO.N,Net-(J3-Pin_1)*%
X160690000Y-113300000D03*
%TD*%
D17*
%TO.P,J4,1,Pin_1_1*%
%TO.N,Net-(J3-Pin_1)*%
X169000000Y-116200000D03*
D18*
X170000000Y-116200000D03*
%TD*%
D17*
%TO.P,J3,1,Pin_1_1*%
%TO.N,Net-(J3-Pin_1)*%
X160600000Y-116200000D03*
D18*
X159600000Y-116200000D03*
%TD*%
D14*
%TO.P,J8,1,Pin_1_1*%
%TO.N,+5V*%
X167100000Y-97600000D03*
%TO.P,J8,2,Pin_2_2*%
%TO.N,Net-(J8-Pin_2)*%
X165900000Y-97600000D03*
%TO.P,J8,3,Pin_3_3*%
%TO.N,GND*%
X164700000Y-97600000D03*
%TD*%
D11*
%TO.P,R3,1*%
%TO.N,Net-(J1-Pin_3)*%
X168937500Y-114110000D03*
%TO.P,R3,2*%
%TO.N,/I_SENSE*%
X168937500Y-113090000D03*
%TD*%
D15*
%TO.P,R6,1*%
%TO.N,/V_SENSE*%
X163410000Y-109200000D03*
%TO.P,R6,2*%
%TO.N,+5V*%
X162390000Y-109200000D03*
%TD*%
%TO.P,R10,1*%
%TO.N,/USART2_TX*%
X161810000Y-100900000D03*
%TO.P,R10,2*%
%TO.N,VDD*%
X160790000Y-100900000D03*
%TD*%
D19*
%TO.P,U2,1,GND_1*%
%TO.N,GND*%
X163650000Y-102537500D03*
%TO.P,U2,2,VO_2*%
%TO.N,VDD*%
X165550000Y-102537500D03*
%TO.P,U2,3,VI_3*%
%TO.N,+5V*%
X164600000Y-100262500D03*
%TD*%
D20*
%TO.P,J1,1,Pin_1_1*%
%TO.N,Net-(J1-Pin_1)*%
X162300000Y-120400000D03*
%TO.P,J1,2,Pin_2_2*%
%TO.N,Net-(J1-Pin_2)*%
X164800000Y-120400000D03*
%TO.P,J1,3,Pin_3_3*%
%TO.N,Net-(J1-Pin_3)*%
X167300000Y-120400000D03*
%TD*%
D21*
%TO.P,C5,1*%
%TO.N,+5V*%
X161000000Y-102425000D03*
%TO.P,C5,2*%
%TO.N,GND*%
X161000000Y-103975000D03*
%TD*%
D15*
%TO.P,R17,1*%
%TO.N,Net-(J1-Pin_2)*%
X162310000Y-110200000D03*
%TO.P,R17,2*%
%TO.N,/SPI_MOSI*%
X161290000Y-110200000D03*
%TD*%
D22*
%TO.P,Q2,1,G_1*%
%TO.N,/LED_PWR_EN*%
X164950000Y-112000000D03*
%TO.P,Q2,2,S_2*%
%TO.N,+5V*%
X163050000Y-112000000D03*
%TO.P,Q2,3,D_3*%
%TO.N,Net-(J1-Pin_1)*%
X164000000Y-113875000D03*
%TD*%
D23*
%TO.P,R1,1*%
%TO.N,Net-(J1-Pin_3)*%
X167000000Y-113462500D03*
%TO.P,R1,2*%
%TO.N,GND*%
X167000000Y-110537500D03*
%TD*%
D21*
%TO.P,C7,1*%
%TO.N,VDD*%
X168500000Y-102625000D03*
%TO.P,C7,2*%
%TO.N,GND*%
X168500000Y-104175000D03*
%TD*%
D24*
%TO.P,R4,1*%
%TO.N,Net-(U1-BOOT0)*%
X168300000Y-106190000D03*
%TO.P,R4,2*%
%TO.N,GND*%
X168300000Y-107210000D03*
%TD*%
D25*
%TO.P,C4,1*%
%TO.N,/V_SENSE*%
X166420000Y-109200000D03*
%TO.P,C4,2*%
%TO.N,GND*%
X167380000Y-109200000D03*
%TD*%
D26*
%TO.N,Net-(J8-Pin_2)*%
X165900000Y-98400000D03*
X165900000Y-97600000D03*
%TO.N,/USART3_TX*%
X160370132Y-105698923D03*
%TO.N,+5V*%
X162100000Y-111600000D03*
X162500000Y-95800000D03*
X167100000Y-98400000D03*
X161800000Y-112200000D03*
X162700000Y-98400000D03*
X167100000Y-97600000D03*
X162700000Y-97600000D03*
X162490690Y-112200000D03*
X164000000Y-99900000D03*
X162500000Y-94800000D03*
X166900000Y-94800000D03*
X166900000Y-95800000D03*
%TO.N,/LED_PWR_EN*%
X169199656Y-104980000D03*
X162500000Y-114310000D03*
%TO.N,/SPI_MOSI*%
X169200100Y-105780002D03*
%TO.N,VDD*%
X160400000Y-104884901D03*
X168361441Y-110082961D03*
X160300000Y-99350000D03*
X163801417Y-111158294D03*
X165190610Y-99232305D03*
X167500000Y-102537500D03*
%TO.N,GND*%
X160300000Y-98400000D03*
X169291159Y-104185217D03*
X164900000Y-95800000D03*
X164300000Y-106000000D03*
X167300000Y-111400000D03*
X166700000Y-111400000D03*
X160300000Y-97600000D03*
X161425000Y-103425000D03*
X164800000Y-106600000D03*
X164700000Y-98400000D03*
X165300000Y-106000000D03*
X169300000Y-94700000D03*
X161713897Y-114120000D03*
X167000000Y-111900000D03*
X164700000Y-97600000D03*
X169300000Y-95800000D03*
X164900000Y-94800000D03*
%TO.N,Net-(U1-BOOT0)*%
X169106882Y-107490374D03*
%TO.N,Net-(J6-Pin_2)*%
X161500000Y-97600000D03*
X161500000Y-98400000D03*
%TO.N,/USART2_TX*%
X160570941Y-110773956D03*
X162400000Y-100500000D03*
%TO.N,/I_SENSE*%
X160946214Y-114345092D03*
X168789950Y-112341421D03*
X160400000Y-108200000D03*
%TO.N,/V_SENSE*%
X160381634Y-107344549D03*
X165827457Y-111428915D03*
%TO.N,/TOUCH*%
X160570941Y-112400000D03*
%TO.N,Net-(J1-Pin_3)*%
X168550000Y-120400000D03*
X166000000Y-116800000D03*
X168550000Y-121400000D03*
X161000000Y-118600000D03*
X163123131Y-118459279D03*
X166000000Y-115600000D03*
X161996830Y-118187321D03*
X168550000Y-119600000D03*
X166000000Y-116200000D03*
%TO.N,Net-(J1-Pin_1)*%
X164600000Y-115400000D03*
X161000000Y-119600000D03*
X161000000Y-120400000D03*
X168600000Y-118600000D03*
X166365738Y-118569545D03*
X167603170Y-118187321D03*
X161000000Y-121350000D03*
X163800000Y-115400000D03*
X164200000Y-115800000D03*
%TO.N,Net-(J1-Pin_2)*%
X164800000Y-118800000D03*
X164800000Y-121600000D03*
X164800000Y-117400000D03*
X164800000Y-120400000D03*
X160570941Y-111573959D03*
%TO.N,Net-(J9-Pin_2)*%
X168100000Y-95800000D03*
X168100000Y-94800000D03*
%TO.N,/USART4_TX*%
X160449108Y-106495017D03*
X168503530Y-99200000D03*
%TO.N,Net-(J5-Pin_3)*%
X163670926Y-100656147D03*
X166495433Y-99124879D03*
X169300001Y-103327847D03*
%TO.N,Net-(J7-Pin_2)*%
X163700000Y-95800000D03*
X163700000Y-94800000D03*
%TD*%
%TO.N,Net-(J8-Pin_2)*%
D27*
X166500000Y-100000000D02*
X165889734Y-99389734D01*
X165889734Y-97610266D02*
X165900000Y-97600000D01*
X165889734Y-99389734D02*
X165889734Y-97610266D01*
X166890000Y-99900000D02*
X166790000Y-100000000D01*
X165900000Y-97600000D02*
X165900000Y-98400000D01*
X166790000Y-100000000D02*
X166500000Y-100000000D01*
%TO.N,/USART3_TX*%
X165165552Y-101000000D02*
X164500000Y-101665552D01*
X166051076Y-101000000D02*
X166588576Y-101537500D01*
X162498923Y-105698923D02*
X160370132Y-105698923D01*
X165165552Y-101000000D02*
X166051076Y-101000000D01*
X164500000Y-104350000D02*
X163150000Y-105700000D01*
X163150000Y-105700000D02*
X162500000Y-105700000D01*
X167910000Y-99900000D02*
X167910000Y-100900000D01*
X167272500Y-101537500D02*
X167910000Y-100900000D01*
X162500000Y-105700000D02*
X162498923Y-105698923D01*
X166588576Y-101537500D02*
X167272500Y-101537500D01*
X164500000Y-101665552D02*
X164500000Y-104350000D01*
%TO.N,+5V*%
X167100000Y-97600000D02*
X167100000Y-98400000D01*
D28*
X163247316Y-101425000D02*
X163962734Y-101425000D01*
X161735661Y-102675000D02*
X161848970Y-102788309D01*
D27*
X163413750Y-110200000D02*
X163427500Y-110200000D01*
D28*
X161000000Y-102425000D02*
X161476030Y-102425000D01*
D27*
X163427500Y-110200000D02*
X163427500Y-110672500D01*
D28*
X161888309Y-102788309D02*
X161900000Y-102800000D01*
X162600000Y-102800000D02*
X162900000Y-102500000D01*
X163962734Y-101425000D02*
X164600000Y-100787734D01*
D27*
X161510000Y-111898791D02*
X161593560Y-111982351D01*
D28*
X162900000Y-101772316D02*
X163247316Y-101425000D01*
X162900000Y-102500000D02*
X162900000Y-101772316D01*
D27*
X162280000Y-109310000D02*
X162390000Y-109200000D01*
D28*
X164000000Y-99900000D02*
X164237500Y-99900000D01*
X161726030Y-102675000D02*
X161735661Y-102675000D01*
D27*
X163427500Y-110672500D02*
X163050000Y-111050000D01*
D28*
X161900000Y-102800000D02*
X162600000Y-102800000D01*
X164237500Y-99900000D02*
X164600000Y-100262500D01*
D27*
X162390000Y-109200000D02*
X162413750Y-109200000D01*
X162413750Y-109200000D02*
X163413750Y-110200000D01*
D28*
X161848970Y-102788309D02*
X161888309Y-102788309D01*
X164600000Y-100787734D02*
X164600000Y-100262500D01*
D29*
X163050000Y-112000000D02*
X161900000Y-112000000D01*
D27*
X161300000Y-109310000D02*
X162280000Y-109310000D01*
X163050000Y-111050000D02*
X163050000Y-112000000D01*
X162700000Y-97600000D02*
X162700000Y-98400000D01*
D28*
X161476030Y-102425000D02*
X161726030Y-102675000D01*
%TO.N,/LED_PWR_EN*%
D27*
X162568204Y-114241796D02*
X162568204Y-113859848D01*
X164447500Y-110647500D02*
X164950000Y-111150000D01*
X162568204Y-113859848D02*
X164428052Y-112000000D01*
X164447500Y-110200000D02*
X164447500Y-110647500D01*
X162500000Y-114310000D02*
X162568204Y-114241796D01*
X164428052Y-112000000D02*
X164950000Y-112000000D01*
X164950000Y-111150000D02*
X164950000Y-112000000D01*
%TO.N,/SPI_MOSI*%
X167900000Y-105500000D02*
X166200000Y-107200000D01*
X160600000Y-109800000D02*
X161000000Y-110200000D01*
X161000000Y-110200000D02*
X161290000Y-110200000D01*
X166750000Y-106650000D02*
X166200000Y-107200000D01*
X169200100Y-105780002D02*
X169151129Y-105780002D01*
X160600000Y-108900000D02*
X160600000Y-109800000D01*
X166200000Y-107200000D02*
X161816170Y-107200000D01*
X161210000Y-108290000D02*
X160600000Y-108900000D01*
X161400000Y-107616170D02*
X161400000Y-108190000D01*
X161816170Y-107200000D02*
X161400000Y-107616170D01*
X161400000Y-108190000D02*
X161300000Y-108290000D01*
X169151129Y-105780002D02*
X168871127Y-105500000D01*
X161300000Y-108290000D02*
X161210000Y-108290000D01*
X168871127Y-105500000D02*
X167900000Y-105500000D01*
%TO.N,VDD*%
X163819166Y-99232305D02*
X163070926Y-99980545D01*
X168412742Y-110082961D02*
X169280000Y-109215703D01*
D28*
X167600000Y-102537500D02*
X167500000Y-102537500D01*
X168412500Y-102537500D02*
X168500000Y-102625000D01*
X166900000Y-102537500D02*
X167600000Y-102537500D01*
X167600000Y-102537500D02*
X168412500Y-102537500D01*
D27*
X160400000Y-104884901D02*
X161615099Y-104884901D01*
X166790000Y-100990000D02*
X166790000Y-101000000D01*
X160300000Y-100410000D02*
X160790000Y-100900000D01*
X166790000Y-101000000D02*
X166890000Y-100900000D01*
X165190610Y-99232305D02*
X163819166Y-99232305D01*
X161410000Y-101520000D02*
X160790000Y-100900000D01*
X166910000Y-100920000D02*
X166910000Y-101000000D01*
X169280000Y-109215703D02*
X169280000Y-108300000D01*
X166875000Y-102562500D02*
X166900000Y-102537500D01*
D28*
X165550000Y-102537500D02*
X166900000Y-102537500D01*
D27*
X163070926Y-100800000D02*
X162350926Y-101520000D01*
X165190610Y-99390610D02*
X166790000Y-100990000D01*
X162050000Y-104450000D02*
X162725000Y-104450000D01*
X162350926Y-101520000D02*
X161410000Y-101520000D01*
X160300000Y-99350000D02*
X160300000Y-100410000D01*
X166890000Y-100900000D02*
X166910000Y-100920000D01*
X168361441Y-110082961D02*
X168412742Y-110082961D01*
X165190610Y-99232305D02*
X165190610Y-99390610D01*
X166875000Y-104450000D02*
X166875000Y-102562500D01*
X163070926Y-99980545D02*
X163070926Y-100800000D01*
X161615099Y-104884901D02*
X162050000Y-104450000D01*
%TO.N,GND*%
D28*
X168500000Y-104175000D02*
X169280942Y-104175000D01*
D27*
X168300000Y-107210000D02*
X168300000Y-108280000D01*
X164700000Y-97600000D02*
X164700000Y-98400000D01*
D28*
X161549389Y-103488309D02*
X161461080Y-103400000D01*
X161100000Y-103729737D02*
X161100000Y-103875000D01*
X163349999Y-103500000D02*
X161610050Y-103500000D01*
X163650000Y-103199999D02*
X163349999Y-103500000D01*
D27*
X167182500Y-110720000D02*
X167000000Y-110537500D01*
D29*
X167000000Y-110537500D02*
X167000000Y-111700000D01*
D28*
X161610050Y-103500000D02*
X161598360Y-103488309D01*
X161375000Y-103400000D02*
X161100000Y-103675000D01*
D27*
X168937500Y-110720000D02*
X167182500Y-110720000D01*
X168300000Y-108280000D02*
X168320000Y-108300000D01*
D28*
X161425000Y-103425000D02*
X161404737Y-103425000D01*
X161404737Y-103425000D02*
X161100000Y-103729737D01*
X161100000Y-103675000D02*
X161100000Y-103875000D01*
X161598360Y-103488309D02*
X161549389Y-103488309D01*
D27*
X167420000Y-109200000D02*
X168320000Y-108300000D01*
D28*
X169280942Y-104175000D02*
X169291159Y-104185217D01*
D27*
X160300000Y-97600000D02*
X160300000Y-98400000D01*
D28*
X161461080Y-103400000D02*
X161375000Y-103400000D01*
D27*
X167380000Y-109200000D02*
X167420000Y-109200000D01*
X167380000Y-110157500D02*
X167380000Y-109200000D01*
D28*
X161100000Y-103875000D02*
X161000000Y-103975000D01*
X163650000Y-102537500D02*
X163650000Y-103199999D01*
D27*
X166873750Y-110663750D02*
X167380000Y-110157500D01*
X165410000Y-109200000D02*
X166873750Y-110663750D01*
%TO.N,Net-(U1-BOOT0)*%
X169106882Y-107490374D02*
X169106882Y-107390333D01*
X169100000Y-106990000D02*
X168300000Y-106190000D01*
X166875000Y-107615000D02*
X168300000Y-106190000D01*
X169106882Y-107390333D02*
X169100000Y-107383451D01*
X162725000Y-107950000D02*
X166875000Y-107950000D01*
X166875000Y-107950000D02*
X166875000Y-107615000D01*
X169100000Y-107383451D02*
X169100000Y-106990000D01*
%TO.N,Net-(J6-Pin_2)*%
X161500000Y-97600000D02*
X161500000Y-98400000D01*
X161500000Y-99690000D02*
X161500000Y-97600000D01*
X161390000Y-99800000D02*
X161500000Y-99690000D01*
%TO.N,/USART2_TX*%
X162000000Y-100900000D02*
X162400000Y-100500000D01*
X162410000Y-99800000D02*
X162410000Y-100490000D01*
X162410000Y-100490000D02*
X162400000Y-100500000D01*
X161810000Y-100900000D02*
X162000000Y-100900000D01*
%TO.N,/I_SENSE*%
X160946214Y-114346214D02*
X161500000Y-114900000D01*
X168937500Y-112488971D02*
X168789950Y-112341421D01*
X168631371Y-112500000D02*
X168789950Y-112341421D01*
X164731371Y-116400000D02*
X165200000Y-115931371D01*
X168789950Y-112341421D02*
X168937500Y-112193871D01*
X165843629Y-112500000D02*
X168631371Y-112500000D01*
X168937500Y-112193871D02*
X168937500Y-111680000D01*
X165200000Y-113143629D02*
X165843629Y-112500000D01*
X162143079Y-114900000D02*
X163643079Y-116400000D01*
X160946214Y-114345092D02*
X160946214Y-114346214D01*
X163643079Y-116400000D02*
X164731371Y-116400000D01*
X165200000Y-115931371D02*
X165200000Y-113143629D01*
X161500000Y-114900000D02*
X162143079Y-114900000D01*
X168937500Y-113090000D02*
X168937500Y-112488971D01*
%TO.N,/V_SENSE*%
X165800000Y-108580000D02*
X165010000Y-108580000D01*
X165825000Y-111426458D02*
X165827457Y-111428915D01*
X165825000Y-110635000D02*
X165825000Y-111426458D01*
X164390000Y-109200000D02*
X165825000Y-110635000D01*
X165010000Y-108580000D02*
X164390000Y-109200000D01*
X166420000Y-109200000D02*
X165800000Y-108580000D01*
X163410000Y-109200000D02*
X164390000Y-109200000D01*
%TO.N,/TOUCH*%
X160570941Y-112400000D02*
X160810000Y-112400000D01*
X160810000Y-112400000D02*
X161710000Y-113300000D01*
%TO.N,Net-(J3-Pin_1)*%
X160690000Y-113300000D02*
X160300000Y-113690000D01*
X161551471Y-116200000D02*
X161600000Y-116200000D01*
X160300000Y-113690000D02*
X160300000Y-114948529D01*
X160300000Y-114948529D02*
X161551471Y-116200000D01*
%TO.N,Net-(J1-Pin_3)*%
X168010000Y-114110000D02*
X168937500Y-114110000D01*
D29*
X167000000Y-114600000D02*
X167000000Y-113462500D01*
X167300000Y-119700000D02*
X167400000Y-119600000D01*
D27*
X167362500Y-113462500D02*
X168010000Y-114110000D01*
D29*
X167550000Y-120400000D02*
X168550000Y-121400000D01*
D27*
X167000000Y-113462500D02*
X167362500Y-113462500D01*
D29*
X167400000Y-119600000D02*
X168550000Y-119600000D01*
X167300000Y-120400000D02*
X167300000Y-119700000D01*
X167300000Y-120400000D02*
X168550000Y-120400000D01*
X168550000Y-120400000D02*
X168550000Y-119600000D01*
X167000000Y-114600000D02*
X166000000Y-115600000D01*
X168550000Y-120400000D02*
X168550000Y-121400000D01*
X166000000Y-115600000D02*
X166000000Y-116800000D01*
X167300000Y-120400000D02*
X167550000Y-120400000D01*
D27*
X167000000Y-113662500D02*
X167000000Y-113462500D01*
X167247500Y-113910000D02*
X167000000Y-113662500D01*
%TO.N,Net-(J1-Pin_1)*%
D29*
X161000000Y-121350000D02*
X161100000Y-121350000D01*
X161000000Y-120400000D02*
X161000000Y-119600000D01*
X161000000Y-121350000D02*
X161000000Y-120400000D01*
X162050000Y-120400000D02*
X162300000Y-120400000D01*
X161100000Y-121350000D02*
X162050000Y-120400000D01*
X164000000Y-113875000D02*
X164000000Y-115600000D01*
X162300000Y-120400000D02*
X161000000Y-120400000D01*
X164000000Y-115600000D02*
X164400000Y-115600000D01*
X161500000Y-119600000D02*
X162300000Y-120400000D01*
X161000000Y-119600000D02*
X161500000Y-119600000D01*
%TO.N,Net-(J1-Pin_2)*%
D27*
X160570941Y-111573959D02*
X161194670Y-111573959D01*
X161194670Y-111573959D02*
X162310000Y-110458629D01*
X162310000Y-110458629D02*
X162310000Y-110200000D01*
X164800000Y-120400000D02*
X164800000Y-117400000D01*
%TO.N,/USART4_TX*%
X168900000Y-99596470D02*
X168503530Y-99200000D01*
X162920669Y-106495017D02*
X164900000Y-104515686D01*
X165910000Y-101510000D02*
X166337500Y-101937500D01*
X166337500Y-101937500D02*
X167962500Y-101937500D01*
X160449108Y-106495017D02*
X162920669Y-106495017D01*
X164900000Y-101831238D02*
X165221238Y-101510000D01*
X167962500Y-101937500D02*
X168900000Y-101000000D01*
X164900000Y-104515686D02*
X164900000Y-101831238D01*
X165221238Y-101510000D02*
X165910000Y-101510000D01*
X168900000Y-101000000D02*
X168900000Y-99596470D01*
%TO.N,Net-(J5-Pin_3)*%
X166495433Y-99240978D02*
X166515911Y-99261456D01*
X168100000Y-98600000D02*
X168900000Y-98600000D01*
X166515911Y-99261456D02*
X167438544Y-99261456D01*
X166495433Y-99124879D02*
X166495433Y-99240978D01*
X167438544Y-99261456D02*
X168100000Y-98600000D01*
X168900000Y-98600000D02*
X169300001Y-99000001D01*
X169300001Y-99000001D02*
X169300001Y-103327847D01*
%TD*%
M02*
