M48
; DRILL file KiCad 10.0.3 date 2026-07-09T16:23:02
; FORMAT={-:-/ absolute / metric / decimal}
; #@! TF.CreationDate,2026-07-09T16:23:02-04:00
; #@! TF.GenerationSoftware,Kicad,Pcbnew,10.0.3
; #@! TF.FileFunction,Plated,1,4,PTH
FMAT,2
METRIC
; #@! TA.AperFunction,Plated,PTH,ViaDrill
T1C0.300
; #@! TA.AperFunction,Plated,PTH,ComponentDrill
T2C1.200
%
G90
G05
T1
X160.3Y-97.6
X160.3Y-98.4
X160.3Y-99.35
X160.37Y-105.699
X160.382Y-107.345
X160.4Y-104.885
X160.4Y-108.2
X160.449Y-106.495
X160.571Y-110.774
X160.571Y-111.574
X160.571Y-112.4
X160.946Y-114.345
X161.0Y-118.6
X161.0Y-119.6
X161.0Y-120.4
X161.0Y-121.35
X161.425Y-103.425
X161.5Y-97.6
X161.5Y-98.4
X161.714Y-114.12
X161.8Y-112.2
X161.997Y-118.187
X162.1Y-111.6
X162.4Y-100.5
X162.491Y-112.2
X162.5Y-94.8
X162.5Y-95.8
X162.5Y-114.31
X162.7Y-97.6
X162.7Y-98.4
X163.123Y-118.459
X163.671Y-100.656
X163.7Y-94.8
X163.7Y-95.8
X163.8Y-115.4
X163.801Y-111.158
X164.0Y-99.9
X164.2Y-115.8
X164.3Y-106.0
X164.6Y-115.4
X164.7Y-97.6
X164.7Y-98.4
X164.8Y-106.6
X164.8Y-117.4
X164.8Y-118.8
X164.8Y-120.4
X164.8Y-121.6
X164.9Y-94.8
X164.9Y-95.8
X165.191Y-99.232
X165.3Y-106.0
X165.827Y-111.429
X165.9Y-97.6
X165.9Y-98.4
X166.0Y-115.6
X166.0Y-116.2
X166.0Y-116.8
X166.366Y-118.57
X166.495Y-99.125
X166.7Y-111.4
X166.9Y-94.8
X166.9Y-95.8
X167.0Y-111.9
X167.1Y-97.6
X167.1Y-98.4
X167.3Y-111.4
X167.5Y-102.537
X167.603Y-118.187
X168.1Y-94.8
X168.1Y-95.8
X168.361Y-110.083
X168.504Y-99.2
X168.55Y-119.6
X168.55Y-120.4
X168.55Y-121.4
X168.6Y-118.6
X168.79Y-112.341
X169.107Y-107.49
X169.2Y-104.98
X169.2Y-105.78
X169.291Y-104.185
X169.3Y-94.7
X169.3Y-95.8
X169.3Y-103.328
T2
X159.6Y-116.2
X161.6Y-116.2
X168.0Y-116.2
X170.0Y-116.2
M30
